<svg id="Capa_1" enable-background="new 0 0 512 512" height="512" viewBox="0 0 512 512" width="512" xmlns="http://www.w3.org/2000/svg" xmlns:xlink="http://www.w3.org/1999/xlink"><linearGradient id="SVGID_1_" gradientUnits="userSpaceOnUse" x1="256" x2="256" y1="316" y2="16"><stop offset="0" stop-color="#00b59c"/><stop offset="1" stop-color="#9cffac"/></linearGradient><linearGradient id="SVGID_2_" gradientUnits="userSpaceOnUse" x1="256" x2="256" y1="496" y2="136"><stop offset="0" stop-color="#c3ffe8"/><stop offset=".9973" stop-color="#f0fff4"/></linearGradient><g><path d="m421 316h-120c-8.291 0-15-6.709-15-15v-75h-60v75c0 8.291-6.709 15-15 15h-120c-49.629 0-91-40.371-91-90 0-44.766 33.842-82.002 76.703-88.872 6.973-67.94 64.541-121.128 134.297-121.128 33.398 0 64.951 12.158 89.854 34.424 9.843-2.945 19.951-4.424 30.146-4.424 53.174 0 97.266 39.741 104.092 91.099 42.949 6.782 76.908 44.062 76.908 88.901 0 49.629-41.371 90-91 90z" fill="url(#SVGID_1_)"/><g><g><path d="m359.418 354.291c-2.549-5.083-7.734-8.291-13.418-8.291h-30v-135c0-8.291-6.709-15-15-15h-90c-8.291 0-15 6.709-15 15v135h-30c-5.684 0-10.869 3.208-13.418 8.291s-1.992 11.162 1.406 15.703l90 120c2.842 3.779 7.295 6.006 12.012 6.006s9.17-2.227 12.012-6.006l90-120c3.398-4.541 3.955-10.62 1.406-15.703zm-148.418-188.291h90c8.291 0 15-6.709 15-15s-6.709-15-15-15h-90c-8.291 0-15 6.709-15 15s6.709 15 15 15z" fill="url(#SVGID_2_)"/></g></g></g></svg>