<?xml version="1.0" encoding="UTF-8"?>
<!DOCTYPE svg PUBLIC "-//W3C//DTD SVG 1.1//EN" "http://www.w3.org/Graphics/SVG/1.1/DTD/svg11.dtd">
<!-- Creator: CorelDRAW 2019 (64-Bit) -->
<svg xmlns="http://www.w3.org/2000/svg" xml:space="preserve" width="21mm" height="49mm" version="1.1" style="shape-rendering:geometricPrecision; text-rendering:geometricPrecision; image-rendering:optimizeQuality; fill-rule:evenodd; clip-rule:evenodd"
viewBox="0 0 2100 4900"
 xmlns:xlink="http://www.w3.org/1999/xlink">
 <defs>
  <style type="text/css">
   <![CDATA[
    .fil0 {fill:#3B5999}
   ]]>
  </style>
 </defs>
 <g id="Layer_x0020_1">
  <metadata id="CorelCorpID_0Corel-Layer"/>
  <path class="fil0" d="M1688.29 727.47l371.91 0 0 -647.73c-64.16,-8.83 -284.83,-28.69 -541.82,-28.69 -1176.65,0 -856.51,1332.47 -903.36,1527.67l-591.89 0 0 724.12 591.72 0 0 240.93 -6.76 0c1.61,1.2 3.2,2.43 4.82,3.61l6.25 1821.97c-0.58,16.52 2.72,32.86 9.43,46.47l295.5 408.89c16,22.56 37.83,35.13 60.53,34.89 22.71,-0.24 44.4,-13.26 60.16,-36.14l285.52 -401.86c7.77,-10.98 12.22,-25.73 12.44,-41.17l1.22 -171.89c0.09,-10.64 -3.25,-20.79 -9.09,-27.63l-175.28 -202.98c-5.87,-6.82 -9.25,-16.93 -9.31,-27.59 -0.03,-10.68 3.3,-20.82 9.12,-27.75l158.97 -187.63c5.83,-7.05 9.16,-17.35 9.13,-28.14 -0.04,-10.79 -3.45,-21.04 -9.31,-28.03l-159.96 -184.23c-5.93,-6.95 -9.37,-17.21 -9.43,-28.01 -0.03,-10.84 3.34,-21.15 9.23,-28.17l158.68 -186.37c5.84,-7.08 9.17,-17.35 9.12,-28.14 -0.03,-10.79 -3.43,-21.03 -9.29,-28.04l-159.97 -184.22c-5.93,-6.96 -9.37,-17.2 -9.41,-28.04 -0.04,-10.83 3.33,-21.12 9.23,-28.16l173.3 -203.63c5.78,-7.12 9.11,-17.37 9.18,-28.17l-0.6 -173.41 2.06 0 0 -247.2 567.78 0 90.13 -724.1 -658.08 0c31.91,-479.36 -129.18,-851.43 348.13,-851.43l0 0z"/>
 </g>
</svg>
