<?xml version="1.0" encoding="UTF-8"?>
<!DOCTYPE svg PUBLIC "-//W3C//DTD SVG 1.1//EN" "http://www.w3.org/Graphics/SVG/1.1/DTD/svg11.dtd">
<!-- Creator: CorelDRAW 2019 (64-Bit) -->
<svg xmlns="http://www.w3.org/2000/svg" xml:space="preserve" width="72mm" height="35mm" version="1.1" style="shape-rendering:geometricPrecision; text-rendering:geometricPrecision; image-rendering:optimizeQuality; fill-rule:evenodd; clip-rule:evenodd"
viewBox="0 0 7200 3500"
 xmlns:xlink="http://www.w3.org/1999/xlink">
 <defs>
  <style type="text/css">
   <![CDATA[
    .fil0 {fill:none}
    .fil1 {fill:#4E54C8}
    .fil2 {fill:#B7BAF7}
    .fil3 {fill:#4E54C8;fill-rule:nonzero}
   ]]>
  </style>
 </defs>
 <g id="Layer_x0020_1">
  <metadata id="CorelCorpID_0Corel-Layer"/>
  <rect class="fil0" x="93.2" y="52.6" width="7000" height="3400"/>
  <g id="_2185122546800">
   <path class="fil1" d="M4870.99 3177.9l0 0c0,147.3 -129.98,268.58 -277.25,268.58l0 0c-77.98,0 -147.3,-25.98 -199.27,-77.98l-857.75 -944.4c-34.64,-25.98 -34.64,-77.98 0,-103.96l199.27 -207.92c25.98,-25.99 77.98,-25.99 103.96,0l944.39 875.07c52,43.34 86.65,121.29 86.65,190.61z"/>
   <polygon class="fil1" points="3479.73,1910.24 3327.16,2062.8 3556.01,2291.65 3708.58,2139.08 "/>
   <path class="fil1" d="M2635.63 58.77c-641.13,0 -1161.02,519.85 -1161.02,1152.32 0,641.13 519.85,1161.02 1161.02,1161.02 632.47,0 1152.32,-519.85 1152.32,-1161.02 0,-632.47 -519.85,-1152.32 -1152.32,-1152.32zm0 2079.39c-511.19,0 -927.07,-415.88 -927.07,-927.07 0,-502.53 415.88,-918.41 927.07,-918.41 502.53,0 918.41,415.88 918.41,918.41 0,511.19 -415.88,927.07 -918.41,927.07z"/>
   <path class="fil2" d="M2635.63 2372.11l0 0c632.47,0 1152.32,-519.85 1152.32,-1161.02l0 0c-34.64,0 -77.98,34.64 -77.98,77.98 -17.32,268.59 -129.98,502.53 -311.92,684.47 -173.29,181.95 -415.89,294.57 -693.13,320.59 -43.34,0 -69.32,34.64 -69.32,77.98l0.03 0z"/>
   <path class="fil2" d="M2635.63 58.77l0 0c-641.13,0 -1161.02,519.85 -1161.02,1152.32l0 0c43.34,0 77.99,-25.98 77.99,-69.32 17.32,-259.92 121.28,-493.87 285.9,-658.49 181.95,-190.6 441.87,-320.58 719.12,-346.56 43.33,0 77.98,-43.34 77.98,-77.98l0.03 0.03z"/>
   <path class="fil1" d="M4775.68 2978.6l-52 -34.65c43.34,43.34 69.32,103.97 69.32,164.63l0 0c0,103.96 -129.97,138.63 -199.26,69.32l-805.76 -805.76c-43.33,-43.34 -112.62,-43.34 -164.62,0l-77.98 77.98 840.43 901.06c52,43.34 112.63,86.64 173.29,86.64 86.64,8.66 164.62,-17.32 225.28,-69.32 52,-60.66 86.64,-138.64 77.98,-225.28 0,-60.66 -43.34,-121.29 -86.64,-164.62l-0.04 0z"/>
   <path class="fil3" d="M4384.88 1713.65l0 -766.61 -375.83 0 0 -123.86 890.47 0 0 123.86 -375.83 0 0 766.61 -138.81 0zm1537.85 -217.81c-50.53,79.72 -117.09,140.58 -199.66,182.57 -82.21,42.01 -176.17,63 -281.16,63 -156.24,0 -285.08,-44.14 -386.51,-132.75 -101.08,-88.62 -151.61,-201.08 -151.61,-337.04 0,-136.31 50.53,-248.77 151.61,-338.11 101.43,-89.33 230.27,-133.81 386.51,-133.81 97.52,0 185.79,18.14 265.15,54.8 79.36,36.31 143.07,87.91 191.83,154.46l-110.68 76.88c-36.67,-50.54 -85.06,-89.69 -145.22,-117.09 -60.14,-27.41 -127.05,-40.93 -200.72,-40.93 -114.25,0 -208.56,32.39 -283.3,97.52 -74.74,64.77 -112.11,146.27 -112.11,244.14 0,97.87 37.37,179.38 112.47,244.15 75.09,65.14 169.4,97.52 282.94,97.52 79.01,0 149.12,-15.66 209.62,-46.62 60.51,-31.32 113.53,-79.72 159.45,-145.56l111.39 76.87zm372.98 -196.46l0 414.27 -138.8 0 0 -890.47 138.8 0 0 345.94 625.68 0 0 -345.94 138.8 0 0 890.47 -138.8 0 0 -414.27 -625.68 0z"/>
   <path class="fil3" d="M1099.94 1401.88l0 -168.7 -313.9 0 0 -132.39 456.98 0 0 345.94c-55.52,95.73 -128.13,169.05 -217.46,220.3 -89.33,50.89 -190.77,76.52 -303.94,76.52 -172.25,0 -314.62,-56.95 -427.08,-170.48 -112.11,-113.53 -168.34,-257.68 -168.34,-432.42 0,-175.1 56.23,-319.6 168.7,-433.14 112.82,-113.52 254.82,-170.47 426.37,-170.47 106.41,0 203.57,23.14 291.13,69.76 87.54,46.62 158.72,113.17 213.53,199.3l-119.58 85.41c-36.3,-68.68 -88.26,-122.78 -156.6,-161.57 -67.98,-38.79 -144.13,-58.37 -228.13,-58.37 -129.19,0 -236.31,44.49 -321.02,133.11 -84.7,88.62 -127.05,200.72 -127.05,335.97 0,135.6 42.35,247.71 127.05,335.97 84.71,88.27 191.83,132.39 321.02,132.39 80.79,0 152.33,-17.43 215.32,-51.96 62.65,-34.87 117.09,-86.48 163,-155.17z"/>
   <polygon class="fil3" points="2172.1,1739.64 2172.1,849.17 3007.04,849.17 3007.04,979.43 2310.89,979.43 2310.89,1201.51 2767.87,1201.51 2767.87,1329.64 2310.89,1329.64 2310.89,1611.51 3045.48,1611.51 3045.48,1739.64 "/>
  </g>
 </g>
</svg>
