<?xml version="1.0" encoding="UTF-8"?>
<!DOCTYPE svg PUBLIC "-//W3C//DTD SVG 1.1//EN" "http://www.w3.org/Graphics/SVG/1.1/DTD/svg11.dtd">
<!-- Creator: CorelDRAW X8 -->
<svg xmlns="http://www.w3.org/2000/svg" xml:space="preserve" width="1.9685in" height="1.1811in" version="1.1" style="shape-rendering:geometricPrecision; text-rendering:geometricPrecision; image-rendering:optimizeQuality; fill-rule:evenodd; clip-rule:evenodd"
viewBox="0 0 1969 1181"
 xmlns:xlink="http://www.w3.org/1999/xlink">
 <defs>
  <style type="text/css">
   <![CDATA[
    .fil1 {fill:#B7BAF7}
    .fil0 {fill:white}
    .fil2 {fill:white;fill-rule:nonzero}
   ]]>
  </style>
 </defs>
 <g id="Layer_x0020_1">
  <metadata id="CorelCorpID_0Corel-Layer"/>
  <path class="fil0" d="M1334 980l0 0c0,40 -36,74 -76,74l0 0c-22,0 -41,-8 -55,-22l-234 -258c-10,-7 -10,-21 0,-28l54 -57c7,-7 22,-7 29,0l258 239c14,12 24,33 24,52z"/>
  <rect class="fil0" transform="matrix(-0.0792558 0.0792558 -0.0792558 -0.0792558 1015.8 696.198)" width="526" height="789"/>
  <path class="fil0" d="M722 128c-175,0 -317,142 -317,315 0,175 142,317 317,317 173,0 315,-142 315,-317 0,-173 -142,-315 -315,-315zm0 568c-139,0 -253,-114 -253,-253 0,-138 114,-252 253,-252 138,0 252,114 252,252 0,139 -114,253 -252,253z"/>
  <path class="fil1" d="M722 760l0 0c173,0 315,-142 315,-317l0 0c-9,0 -21,9 -21,21 -5,73 -35,137 -85,187 -47,50 -114,80 -190,88 -11,0 -19,9 -19,21l0 0z"/>
  <path class="fil1" d="M722 128l0 0c-175,0 -317,142 -317,315l0 0c12,0 21,-8 21,-19 5,-71 34,-135 79,-180 49,-53 120,-88 196,-95 12,0 21,-12 21,-21l0 0z"/>
  <path class="fil0" d="M1307 926l-14 -10c12,12 19,29 19,45l0 0c0,29 -35,38 -54,19l-220 -220c-12,-12 -31,-12 -45,0l-22 21 230 247c14,11 31,23 47,23 24,3 45,-5 62,-19 14,-16 24,-38 21,-61 0,-17 -12,-33 -23,-45l-1 0z"/>
  <path class="fil2" d="M1201 580l0 -210 -103 0 0 -34 243 0 0 34 -102 0 0 210 -38 0zm420 -60c-14,22 -32,39 -55,50 -22,12 -48,17 -76,17 -43,0 -78,-12 -106,-36 -28,-24 -41,-55 -41,-92 0,-37 13,-68 41,-92 28,-25 63,-37 106,-37 26,0 50,5 72,15 22,10 39,24 53,42l-31 21c-10,-14 -23,-24 -39,-32 -17,-7 -35,-11 -55,-11 -32,0 -57,9 -78,27 -20,17 -30,40 -30,66 0,27 10,50 30,67 21,18 47,27 78,27 21,0 40,-4 57,-13 17,-8 31,-22 44,-40l30 21zm102 -53l0 113 -38 0 0 -244 38 0 0 95 171 0 0 -95 38 0 0 244 -38 0 0 -113 -171 0z"/>
  <path class="fil2" d="M303 495l0 -46 -86 0 0 -37 125 0 0 95c-15,26 -35,46 -60,60 -24,14 -52,21 -83,21 -47,0 -86,-15 -116,-47 -31,-31 -46,-70 -46,-118 0,-48 15,-87 46,-118 30,-31 69,-47 116,-47 29,0 56,7 80,19 24,13 43,31 58,55l-33 23c-9,-19 -24,-33 -42,-44 -19,-11 -40,-16 -63,-16 -35,0 -64,12 -87,36 -24,25 -35,55 -35,92 0,37 11,68 35,92 23,24 52,36 87,36 22,0 42,-4 59,-14 17,-9 32,-24 45,-42z"/>
  <polygon class="fil2" points="596,587 596,344 824,344 824,379 634,379 634,440 759,440 759,475 634,475 634,552 835,552 835,587 "/>
 </g>
</svg>
